<mxfile host="app.diagrams.net" modified="2024-02-22T12:52:48.994Z" agent="Mozilla/5.0 (Windows NT 10.0; Win64; x64) AppleWebKit/537.36 (KHTML, like Gecko) Chrome/121.0.0.0 Safari/537.36 Edg/121.0.0.0" etag="Mfqw04rJrq11nOoyCLXJ" version="21.3.3" type="device">
  <diagram name="Page-1" id="fgIBBaPACrphNUb2yU_0">
    <mxGraphModel dx="3569" dy="1269" grid="0" gridSize="10" guides="1" tooltips="1" connect="1" arrows="1" fold="1" page="0" pageScale="1" pageWidth="850" pageHeight="1100" math="0" shadow="0">
      <root>
        <mxCell id="0" />
        <mxCell id="1" parent="0" />
        <mxCell id="kWf70IJN_p3yiQGSxXuf-264" value="" style="rounded=0;whiteSpace=wrap;html=1;" vertex="1" parent="1">
          <mxGeometry x="1192" y="2184" width="552" height="528" as="geometry" />
        </mxCell>
        <mxCell id="kWf70IJN_p3yiQGSxXuf-134" value="&lt;font color=&quot;#ffffff&quot;&gt;&lt;span style=&quot;font-size: 20px;&quot;&gt;&lt;b&gt;Search context&lt;/b&gt;&lt;/span&gt;&lt;/font&gt;" style="rounded=0;whiteSpace=wrap;html=1;flipV=0;flipH=1;direction=west;labelPosition=center;verticalLabelPosition=middle;align=center;verticalAlign=top;" vertex="1" parent="1">
          <mxGeometry x="920" y="1006.5" width="680" height="382" as="geometry" />
        </mxCell>
        <mxCell id="kWf70IJN_p3yiQGSxXuf-133" value="&lt;font color=&quot;#ffffff&quot; size=&quot;1&quot;&gt;&lt;b style=&quot;font-size: 20px;&quot;&gt;User management context&lt;/b&gt;&lt;/font&gt;" style="rounded=0;whiteSpace=wrap;html=1;flipV=0;flipH=1;direction=west;labelPosition=center;verticalLabelPosition=middle;align=center;verticalAlign=top;" vertex="1" parent="1">
          <mxGeometry x="126" y="477.5" width="680" height="911" as="geometry" />
        </mxCell>
        <mxCell id="kWf70IJN_p3yiQGSxXuf-58" value="&lt;font size=&quot;1&quot; color=&quot;#080808&quot;&gt;&lt;b style=&quot;font-size: 20px;&quot;&gt;User&lt;/b&gt;&lt;/font&gt;" style="rounded=0;whiteSpace=wrap;html=1;fillColor=#1ba1e2;fontColor=#ffffff;strokeColor=#006EAF;" vertex="1" parent="1">
          <mxGeometry x="1093" y="702" width="120" height="60" as="geometry" />
        </mxCell>
        <mxCell id="kWf70IJN_p3yiQGSxXuf-60" value="&lt;font size=&quot;1&quot; color=&quot;#080808&quot;&gt;&lt;b style=&quot;font-size: 20px;&quot;&gt;Search&lt;/b&gt;&lt;/font&gt;" style="rounded=0;whiteSpace=wrap;html=1;fillColor=#1ba1e2;fontColor=#ffffff;strokeColor=#006EAF;" vertex="1" parent="1">
          <mxGeometry x="1227" y="702" width="120" height="60" as="geometry" />
        </mxCell>
        <mxCell id="kWf70IJN_p3yiQGSxXuf-62" value="&lt;font size=&quot;1&quot; color=&quot;#080808&quot;&gt;&lt;b style=&quot;font-size: 20px;&quot;&gt;API Gateway&lt;/b&gt;&lt;/font&gt;" style="rounded=0;whiteSpace=wrap;html=1;fillColor=#60a917;fontColor=#ffffff;strokeColor=#2D7600;flipV=0;flipH=1;direction=west;labelPosition=center;verticalLabelPosition=middle;align=center;verticalAlign=middle;" vertex="1" parent="1">
          <mxGeometry x="1093" y="622" width="260" height="30" as="geometry" />
        </mxCell>
        <mxCell id="kWf70IJN_p3yiQGSxXuf-64" value="&lt;font size=&quot;1&quot; color=&quot;#080808&quot;&gt;&lt;b style=&quot;font-size: 20px;&quot;&gt;Client&lt;/b&gt;&lt;/font&gt;" style="rounded=0;whiteSpace=wrap;html=1;fillColor=#d80073;fontColor=#ffffff;strokeColor=#A50040;flipV=0;flipH=1;direction=west;labelPosition=center;verticalLabelPosition=middle;align=center;verticalAlign=middle;" vertex="1" parent="1">
          <mxGeometry x="1093" y="542" width="260" height="30" as="geometry" />
        </mxCell>
        <mxCell id="kWf70IJN_p3yiQGSxXuf-65" value="" style="endArrow=classic;html=1;rounded=0;exitX=0.5;exitY=0;exitDx=0;exitDy=0;entryX=0.5;entryY=1;entryDx=0;entryDy=0;" edge="1" parent="1" source="kWf70IJN_p3yiQGSxXuf-64" target="kWf70IJN_p3yiQGSxXuf-62">
          <mxGeometry width="50" height="50" relative="1" as="geometry">
            <mxPoint x="1423" y="742" as="sourcePoint" />
            <mxPoint x="1473" y="692" as="targetPoint" />
          </mxGeometry>
        </mxCell>
        <mxCell id="kWf70IJN_p3yiQGSxXuf-69" value="&lt;font color=&quot;#ffffff&quot; size=&quot;1&quot;&gt;&lt;b style=&quot;font-size: 20px;&quot;&gt;1. User wants to create profile&lt;/b&gt;&lt;/font&gt;" style="rounded=0;whiteSpace=wrap;html=1;flipV=0;flipH=1;direction=west;labelPosition=center;verticalLabelPosition=middle;align=center;verticalAlign=middle;" vertex="1" parent="1">
          <mxGeometry x="260" y="529" width="380" height="40" as="geometry" />
        </mxCell>
        <mxCell id="kWf70IJN_p3yiQGSxXuf-70" value="&lt;font size=&quot;1&quot; color=&quot;#080808&quot;&gt;&lt;b style=&quot;font-size: 20px;&quot;&gt;Client&lt;/b&gt;&lt;/font&gt;" style="rounded=0;whiteSpace=wrap;html=1;fillColor=#d80073;fontColor=#ffffff;strokeColor=#A50040;flipV=0;flipH=1;direction=west;labelPosition=center;verticalLabelPosition=middle;align=center;verticalAlign=middle;" vertex="1" parent="1">
          <mxGeometry x="160" y="579" width="90" height="60" as="geometry" />
        </mxCell>
        <mxCell id="kWf70IJN_p3yiQGSxXuf-71" value="&lt;font size=&quot;1&quot; color=&quot;#080808&quot;&gt;&lt;b style=&quot;font-size: 20px;&quot;&gt;API Gateway&lt;/b&gt;&lt;/font&gt;" style="rounded=0;whiteSpace=wrap;html=1;fillColor=#60a917;fontColor=#ffffff;strokeColor=#2D7600;flipV=0;flipH=1;direction=west;labelPosition=center;verticalLabelPosition=middle;align=center;verticalAlign=middle;" vertex="1" parent="1">
          <mxGeometry x="390" y="579" width="130" height="60" as="geometry" />
        </mxCell>
        <mxCell id="kWf70IJN_p3yiQGSxXuf-72" value="" style="endArrow=classic;html=1;rounded=0;exitX=0;exitY=0.75;exitDx=0;exitDy=0;entryX=1;entryY=0.75;entryDx=0;entryDy=0;" edge="1" parent="1" source="kWf70IJN_p3yiQGSxXuf-70" target="kWf70IJN_p3yiQGSxXuf-71">
          <mxGeometry width="50" height="50" relative="1" as="geometry">
            <mxPoint x="570" y="709" as="sourcePoint" />
            <mxPoint x="620" y="659" as="targetPoint" />
          </mxGeometry>
        </mxCell>
        <mxCell id="kWf70IJN_p3yiQGSxXuf-73" value="" style="shape=cylinder3;whiteSpace=wrap;html=1;boundedLbl=1;backgroundOutline=1;size=15;" vertex="1" parent="1">
          <mxGeometry x="1123" y="832" width="60" height="40" as="geometry" />
        </mxCell>
        <mxCell id="kWf70IJN_p3yiQGSxXuf-76" value="" style="shape=cylinder3;whiteSpace=wrap;html=1;boundedLbl=1;backgroundOutline=1;size=15;" vertex="1" parent="1">
          <mxGeometry x="1123" y="822" width="60" height="40" as="geometry" />
        </mxCell>
        <mxCell id="kWf70IJN_p3yiQGSxXuf-77" value="" style="shape=cylinder3;whiteSpace=wrap;html=1;boundedLbl=1;backgroundOutline=1;size=15;" vertex="1" parent="1">
          <mxGeometry x="1123" y="812" width="60" height="40" as="geometry" />
        </mxCell>
        <mxCell id="kWf70IJN_p3yiQGSxXuf-79" value="" style="endArrow=classic;html=1;rounded=0;exitX=0.5;exitY=1;exitDx=0;exitDy=0;entryX=0.5;entryY=0;entryDx=0;entryDy=0;entryPerimeter=0;" edge="1" parent="1" source="kWf70IJN_p3yiQGSxXuf-58" target="kWf70IJN_p3yiQGSxXuf-77">
          <mxGeometry width="50" height="50" relative="1" as="geometry">
            <mxPoint x="1153" y="772" as="sourcePoint" />
            <mxPoint x="1353" y="822" as="targetPoint" />
          </mxGeometry>
        </mxCell>
        <mxCell id="kWf70IJN_p3yiQGSxXuf-80" value="&lt;b&gt;&lt;font style=&quot;font-size: 17px;&quot;&gt;DB&lt;/font&gt;&lt;/b&gt;" style="text;html=1;strokeColor=none;fillColor=none;align=center;verticalAlign=middle;whiteSpace=wrap;rounded=0;" vertex="1" parent="1">
          <mxGeometry x="1123" y="812" width="60" height="30" as="geometry" />
        </mxCell>
        <mxCell id="kWf70IJN_p3yiQGSxXuf-81" value="&lt;font size=&quot;1&quot; color=&quot;#080808&quot;&gt;&lt;b style=&quot;font-size: 20px;&quot;&gt;User&lt;/b&gt;&lt;/font&gt;" style="rounded=0;whiteSpace=wrap;html=1;fillColor=#1ba1e2;fontColor=#ffffff;strokeColor=#006EAF;" vertex="1" parent="1">
          <mxGeometry x="650" y="579" width="120" height="60" as="geometry" />
        </mxCell>
        <mxCell id="kWf70IJN_p3yiQGSxXuf-82" value="" style="endArrow=classic;html=1;rounded=0;exitX=0;exitY=0.75;exitDx=0;exitDy=0;entryX=0;entryY=0.25;entryDx=0;entryDy=0;" edge="1" parent="1" source="kWf70IJN_p3yiQGSxXuf-71" target="kWf70IJN_p3yiQGSxXuf-81">
          <mxGeometry width="50" height="50" relative="1" as="geometry">
            <mxPoint x="590" y="749" as="sourcePoint" />
            <mxPoint x="640" y="699" as="targetPoint" />
          </mxGeometry>
        </mxCell>
        <mxCell id="kWf70IJN_p3yiQGSxXuf-85" value="&lt;font color=&quot;#ffffff&quot; size=&quot;1&quot;&gt;&lt;b style=&quot;font-size: 20px;&quot;&gt;2. User wants to edit profile&lt;/b&gt;&lt;/font&gt;" style="rounded=0;whiteSpace=wrap;html=1;flipV=0;flipH=1;direction=west;labelPosition=center;verticalLabelPosition=middle;align=center;verticalAlign=middle;" vertex="1" parent="1">
          <mxGeometry x="255" y="822" width="380" height="40" as="geometry" />
        </mxCell>
        <mxCell id="kWf70IJN_p3yiQGSxXuf-86" value="&lt;font color=&quot;#ffffff&quot; size=&quot;1&quot;&gt;&lt;b style=&quot;font-size: 20px;&quot;&gt;3. User wants to manage user settings&lt;/b&gt;&lt;/font&gt;" style="rounded=0;whiteSpace=wrap;html=1;flipV=0;flipH=1;direction=west;labelPosition=center;verticalLabelPosition=middle;align=center;verticalAlign=middle;" vertex="1" parent="1">
          <mxGeometry x="250" y="1121" width="380" height="40" as="geometry" />
        </mxCell>
        <mxCell id="kWf70IJN_p3yiQGSxXuf-104" value="" style="endArrow=classic;html=1;rounded=0;entryX=0;entryY=0.25;entryDx=0;entryDy=0;exitX=0;exitY=0.75;exitDx=0;exitDy=0;" edge="1" parent="1" source="kWf70IJN_p3yiQGSxXuf-81" target="kWf70IJN_p3yiQGSxXuf-71">
          <mxGeometry width="50" height="50" relative="1" as="geometry">
            <mxPoint x="550" y="669" as="sourcePoint" />
            <mxPoint x="600" y="619" as="targetPoint" />
          </mxGeometry>
        </mxCell>
        <mxCell id="kWf70IJN_p3yiQGSxXuf-105" value="" style="endArrow=classic;html=1;rounded=0;entryX=0;entryY=0.25;entryDx=0;entryDy=0;exitX=1;exitY=0.25;exitDx=0;exitDy=0;" edge="1" parent="1" source="kWf70IJN_p3yiQGSxXuf-71" target="kWf70IJN_p3yiQGSxXuf-70">
          <mxGeometry width="50" height="50" relative="1" as="geometry">
            <mxPoint x="330" y="669" as="sourcePoint" />
            <mxPoint x="380" y="619" as="targetPoint" />
          </mxGeometry>
        </mxCell>
        <mxCell id="kWf70IJN_p3yiQGSxXuf-120" value="&lt;font color=&quot;#ffffff&quot; size=&quot;1&quot;&gt;&lt;b style=&quot;font-size: 20px;&quot;&gt;4. User wants to search for users by name or username&lt;/b&gt;&lt;/font&gt;" style="rounded=0;whiteSpace=wrap;html=1;flipV=0;flipH=1;direction=west;labelPosition=center;verticalLabelPosition=middle;align=center;verticalAlign=middle;" vertex="1" parent="1">
          <mxGeometry x="1048" y="1062.5" width="380" height="60" as="geometry" />
        </mxCell>
        <mxCell id="kWf70IJN_p3yiQGSxXuf-121" value="&lt;font size=&quot;1&quot; color=&quot;#080808&quot;&gt;&lt;b style=&quot;font-size: 20px;&quot;&gt;Client&lt;/b&gt;&lt;/font&gt;" style="rounded=0;whiteSpace=wrap;html=1;fillColor=#d80073;fontColor=#ffffff;strokeColor=#A50040;flipV=0;flipH=1;direction=west;labelPosition=center;verticalLabelPosition=middle;align=center;verticalAlign=middle;" vertex="1" parent="1">
          <mxGeometry x="958" y="1132.5" width="90" height="60" as="geometry" />
        </mxCell>
        <mxCell id="kWf70IJN_p3yiQGSxXuf-122" value="&lt;font size=&quot;1&quot; color=&quot;#080808&quot;&gt;&lt;b style=&quot;font-size: 20px;&quot;&gt;API Gateway&lt;/b&gt;&lt;/font&gt;" style="rounded=0;whiteSpace=wrap;html=1;fillColor=#60a917;fontColor=#ffffff;strokeColor=#2D7600;flipV=0;flipH=1;direction=west;labelPosition=center;verticalLabelPosition=middle;align=center;verticalAlign=middle;" vertex="1" parent="1">
          <mxGeometry x="1188" y="1132.5" width="130" height="60" as="geometry" />
        </mxCell>
        <mxCell id="kWf70IJN_p3yiQGSxXuf-123" value="" style="endArrow=classic;html=1;rounded=0;exitX=0;exitY=0.75;exitDx=0;exitDy=0;entryX=1;entryY=0.75;entryDx=0;entryDy=0;" edge="1" parent="1" source="kWf70IJN_p3yiQGSxXuf-121" target="kWf70IJN_p3yiQGSxXuf-122">
          <mxGeometry width="50" height="50" relative="1" as="geometry">
            <mxPoint x="1368" y="1262.5" as="sourcePoint" />
            <mxPoint x="1418" y="1212.5" as="targetPoint" />
          </mxGeometry>
        </mxCell>
        <mxCell id="kWf70IJN_p3yiQGSxXuf-124" value="&lt;font size=&quot;1&quot; color=&quot;#080808&quot;&gt;&lt;b style=&quot;font-size: 20px;&quot;&gt;Search&lt;/b&gt;&lt;/font&gt;" style="rounded=0;whiteSpace=wrap;html=1;fillColor=#1ba1e2;fontColor=#ffffff;strokeColor=#006EAF;" vertex="1" parent="1">
          <mxGeometry x="1189" y="1246.5" width="129" height="60" as="geometry" />
        </mxCell>
        <mxCell id="kWf70IJN_p3yiQGSxXuf-125" value="" style="endArrow=classic;html=1;rounded=0;exitX=0.75;exitY=0;exitDx=0;exitDy=0;entryX=0.25;entryY=0;entryDx=0;entryDy=0;" edge="1" parent="1" source="kWf70IJN_p3yiQGSxXuf-122" target="kWf70IJN_p3yiQGSxXuf-124">
          <mxGeometry width="50" height="50" relative="1" as="geometry">
            <mxPoint x="1388" y="1302.5" as="sourcePoint" />
            <mxPoint x="1438" y="1252.5" as="targetPoint" />
          </mxGeometry>
        </mxCell>
        <mxCell id="kWf70IJN_p3yiQGSxXuf-127" value="" style="endArrow=classic;html=1;rounded=0;entryX=0;entryY=0.25;entryDx=0;entryDy=0;exitX=1;exitY=0.25;exitDx=0;exitDy=0;" edge="1" parent="1" source="kWf70IJN_p3yiQGSxXuf-122" target="kWf70IJN_p3yiQGSxXuf-121">
          <mxGeometry width="50" height="50" relative="1" as="geometry">
            <mxPoint x="1128" y="1222.5" as="sourcePoint" />
            <mxPoint x="1178" y="1172.5" as="targetPoint" />
          </mxGeometry>
        </mxCell>
        <mxCell id="kWf70IJN_p3yiQGSxXuf-128" value="&lt;font size=&quot;1&quot; color=&quot;#080808&quot;&gt;&lt;b style=&quot;font-size: 20px;&quot;&gt;User&lt;/b&gt;&lt;/font&gt;" style="rounded=0;whiteSpace=wrap;html=1;fillColor=#1ba1e2;fontColor=#ffffff;strokeColor=#006EAF;" vertex="1" parent="1">
          <mxGeometry x="1442" y="1246.5" width="120" height="60" as="geometry" />
        </mxCell>
        <mxCell id="kWf70IJN_p3yiQGSxXuf-129" value="" style="endArrow=classic;html=1;rounded=0;entryX=0;entryY=0.25;entryDx=0;entryDy=0;exitX=1;exitY=0.25;exitDx=0;exitDy=0;" edge="1" parent="1" source="kWf70IJN_p3yiQGSxXuf-124" target="kWf70IJN_p3yiQGSxXuf-128">
          <mxGeometry width="50" height="50" relative="1" as="geometry">
            <mxPoint x="1321" y="1290.5" as="sourcePoint" />
            <mxPoint x="1458" y="1157.5" as="targetPoint" />
          </mxGeometry>
        </mxCell>
        <mxCell id="kWf70IJN_p3yiQGSxXuf-131" value="" style="endArrow=classic;html=1;rounded=0;exitX=0.75;exitY=0;exitDx=0;exitDy=0;entryX=0.25;entryY=0;entryDx=0;entryDy=0;" edge="1" parent="1" source="kWf70IJN_p3yiQGSxXuf-124" target="kWf70IJN_p3yiQGSxXuf-122">
          <mxGeometry width="50" height="50" relative="1" as="geometry">
            <mxPoint x="1488" y="1242.5" as="sourcePoint" />
            <mxPoint x="1488" y="1202.5" as="targetPoint" />
          </mxGeometry>
        </mxCell>
        <mxCell id="kWf70IJN_p3yiQGSxXuf-142" value="&lt;font size=&quot;1&quot; color=&quot;#080808&quot;&gt;&lt;b style=&quot;font-size: 20px;&quot;&gt;Identity&lt;/b&gt;&lt;/font&gt;" style="rounded=0;whiteSpace=wrap;html=1;fillColor=#11668F;fontColor=#ffffff;strokeColor=#006EAF;" vertex="1" parent="1">
          <mxGeometry x="1442" y="1132.5" width="120" height="60" as="geometry" />
        </mxCell>
        <mxCell id="kWf70IJN_p3yiQGSxXuf-143" value="" style="endArrow=classic;html=1;rounded=0;exitX=0;exitY=0.75;exitDx=0;exitDy=0;entryX=0;entryY=0.25;entryDx=0;entryDy=0;" edge="1" parent="1" source="kWf70IJN_p3yiQGSxXuf-122" target="kWf70IJN_p3yiQGSxXuf-142">
          <mxGeometry width="50" height="50" relative="1" as="geometry">
            <mxPoint x="1389" y="1184.5" as="sourcePoint" />
            <mxPoint x="1439" y="1134.5" as="targetPoint" />
          </mxGeometry>
        </mxCell>
        <mxCell id="kWf70IJN_p3yiQGSxXuf-144" value="1" style="text;html=1;strokeColor=none;fillColor=none;align=center;verticalAlign=middle;whiteSpace=wrap;rounded=0;" vertex="1" parent="1">
          <mxGeometry x="1088" y="1119.5" width="60" height="30" as="geometry" />
        </mxCell>
        <mxCell id="kWf70IJN_p3yiQGSxXuf-145" value="2" style="text;html=1;strokeColor=none;fillColor=none;align=center;verticalAlign=middle;whiteSpace=wrap;rounded=0;" vertex="1" parent="1">
          <mxGeometry x="1344" y="1124.5" width="60" height="30" as="geometry" />
        </mxCell>
        <mxCell id="kWf70IJN_p3yiQGSxXuf-146" value="" style="endArrow=classic;html=1;rounded=0;entryX=0;entryY=0.25;entryDx=0;entryDy=0;exitX=0;exitY=0.75;exitDx=0;exitDy=0;" edge="1" parent="1" source="kWf70IJN_p3yiQGSxXuf-142" target="kWf70IJN_p3yiQGSxXuf-122">
          <mxGeometry width="50" height="50" relative="1" as="geometry">
            <mxPoint x="1369" y="1211.5" as="sourcePoint" />
            <mxPoint x="1419" y="1161.5" as="targetPoint" />
          </mxGeometry>
        </mxCell>
        <mxCell id="kWf70IJN_p3yiQGSxXuf-147" value="3" style="text;html=1;strokeColor=none;fillColor=none;align=center;verticalAlign=middle;whiteSpace=wrap;rounded=0;" vertex="1" parent="1">
          <mxGeometry x="1344" y="1171.5" width="60" height="30" as="geometry" />
        </mxCell>
        <mxCell id="kWf70IJN_p3yiQGSxXuf-150" value="" style="endArrow=classic;html=1;rounded=0;exitX=0;exitY=0.75;exitDx=0;exitDy=0;entryX=1;entryY=0.75;entryDx=0;entryDy=0;" edge="1" parent="1" source="kWf70IJN_p3yiQGSxXuf-128" target="kWf70IJN_p3yiQGSxXuf-124">
          <mxGeometry width="50" height="50" relative="1" as="geometry">
            <mxPoint x="1328" y="1271.5" as="sourcePoint" />
            <mxPoint x="1395" y="1316.5" as="targetPoint" />
          </mxGeometry>
        </mxCell>
        <mxCell id="kWf70IJN_p3yiQGSxXuf-151" value="4" style="text;html=1;strokeColor=none;fillColor=none;align=center;verticalAlign=middle;whiteSpace=wrap;rounded=0;" vertex="1" parent="1">
          <mxGeometry x="1181" y="1201.5" width="60" height="30" as="geometry" />
        </mxCell>
        <mxCell id="kWf70IJN_p3yiQGSxXuf-153" value="5" style="text;html=1;strokeColor=none;fillColor=none;align=center;verticalAlign=middle;whiteSpace=wrap;rounded=0;" vertex="1" parent="1">
          <mxGeometry x="1352" y="1235.5" width="60" height="30" as="geometry" />
        </mxCell>
        <mxCell id="kWf70IJN_p3yiQGSxXuf-154" value="6" style="text;html=1;strokeColor=none;fillColor=none;align=center;verticalAlign=middle;whiteSpace=wrap;rounded=0;" vertex="1" parent="1">
          <mxGeometry x="1352" y="1287.5" width="60" height="30" as="geometry" />
        </mxCell>
        <mxCell id="kWf70IJN_p3yiQGSxXuf-155" value="&lt;font size=&quot;1&quot; color=&quot;#080808&quot;&gt;&lt;b style=&quot;font-size: 20px;&quot;&gt;Identity&lt;br&gt;(mock)&lt;br&gt;&lt;/b&gt;&lt;/font&gt;" style="rounded=0;whiteSpace=wrap;html=1;fillColor=#11668F;fontColor=#ffffff;strokeColor=#006EAF;" vertex="1" parent="1">
          <mxGeometry x="1362" y="702" width="120" height="60" as="geometry" />
        </mxCell>
        <mxCell id="kWf70IJN_p3yiQGSxXuf-156" value="7" style="text;html=1;strokeColor=none;fillColor=none;align=center;verticalAlign=middle;whiteSpace=wrap;rounded=0;" vertex="1" parent="1">
          <mxGeometry x="1266" y="1205.5" width="60" height="30" as="geometry" />
        </mxCell>
        <mxCell id="kWf70IJN_p3yiQGSxXuf-157" value="8" style="text;html=1;strokeColor=none;fillColor=none;align=center;verticalAlign=middle;whiteSpace=wrap;rounded=0;" vertex="1" parent="1">
          <mxGeometry x="1088" y="1174.5" width="60" height="30" as="geometry" />
        </mxCell>
        <mxCell id="kWf70IJN_p3yiQGSxXuf-158" value="" style="shape=cylinder3;whiteSpace=wrap;html=1;boundedLbl=1;backgroundOutline=1;size=15;" vertex="1" parent="1">
          <mxGeometry x="1392" y="835" width="60" height="40" as="geometry" />
        </mxCell>
        <mxCell id="kWf70IJN_p3yiQGSxXuf-159" value="" style="shape=cylinder3;whiteSpace=wrap;html=1;boundedLbl=1;backgroundOutline=1;size=15;" vertex="1" parent="1">
          <mxGeometry x="1392" y="825" width="60" height="40" as="geometry" />
        </mxCell>
        <mxCell id="kWf70IJN_p3yiQGSxXuf-160" value="" style="shape=cylinder3;whiteSpace=wrap;html=1;boundedLbl=1;backgroundOutline=1;size=15;" vertex="1" parent="1">
          <mxGeometry x="1392" y="815" width="60" height="40" as="geometry" />
        </mxCell>
        <mxCell id="kWf70IJN_p3yiQGSxXuf-161" value="" style="endArrow=classic;html=1;rounded=0;entryX=0.5;entryY=0;entryDx=0;entryDy=0;entryPerimeter=0;" edge="1" parent="1" target="kWf70IJN_p3yiQGSxXuf-160">
          <mxGeometry width="50" height="50" relative="1" as="geometry">
            <mxPoint x="1422" y="762" as="sourcePoint" />
            <mxPoint x="1622" y="825" as="targetPoint" />
          </mxGeometry>
        </mxCell>
        <mxCell id="kWf70IJN_p3yiQGSxXuf-162" value="&lt;b&gt;&lt;font style=&quot;font-size: 17px;&quot;&gt;DB&lt;/font&gt;&lt;/b&gt;" style="text;html=1;strokeColor=none;fillColor=none;align=center;verticalAlign=middle;whiteSpace=wrap;rounded=0;" vertex="1" parent="1">
          <mxGeometry x="1392" y="815" width="60" height="30" as="geometry" />
        </mxCell>
        <mxCell id="kWf70IJN_p3yiQGSxXuf-163" value="&lt;font size=&quot;1&quot; color=&quot;#080808&quot;&gt;&lt;b style=&quot;font-size: 20px;&quot;&gt;Identity&lt;br&gt;(mock)&lt;br&gt;&lt;/b&gt;&lt;/font&gt;" style="rounded=0;whiteSpace=wrap;html=1;fillColor=#11668F;fontColor=#ffffff;strokeColor=#006EAF;" vertex="1" parent="1">
          <mxGeometry x="650" y="707" width="120" height="60" as="geometry" />
        </mxCell>
        <mxCell id="kWf70IJN_p3yiQGSxXuf-164" value="" style="endArrow=classic;html=1;rounded=0;exitX=0.75;exitY=1;exitDx=0;exitDy=0;entryX=0.75;entryY=0;entryDx=0;entryDy=0;" edge="1" parent="1" source="kWf70IJN_p3yiQGSxXuf-81" target="kWf70IJN_p3yiQGSxXuf-163">
          <mxGeometry width="50" height="50" relative="1" as="geometry">
            <mxPoint x="-10" y="593" as="sourcePoint" />
            <mxPoint x="40" y="543" as="targetPoint" />
          </mxGeometry>
        </mxCell>
        <mxCell id="kWf70IJN_p3yiQGSxXuf-165" value="" style="endArrow=classic;html=1;rounded=0;exitX=0.25;exitY=0;exitDx=0;exitDy=0;entryX=0.25;entryY=1;entryDx=0;entryDy=0;" edge="1" parent="1" source="kWf70IJN_p3yiQGSxXuf-163" target="kWf70IJN_p3yiQGSxXuf-81">
          <mxGeometry width="50" height="50" relative="1" as="geometry">
            <mxPoint x="750" y="649" as="sourcePoint" />
            <mxPoint x="694" y="677" as="targetPoint" />
          </mxGeometry>
        </mxCell>
        <mxCell id="kWf70IJN_p3yiQGSxXuf-166" value="1" style="text;html=1;strokeColor=none;fillColor=none;align=center;verticalAlign=middle;whiteSpace=wrap;rounded=0;" vertex="1" parent="1">
          <mxGeometry x="283" y="571" width="60" height="30" as="geometry" />
        </mxCell>
        <mxCell id="kWf70IJN_p3yiQGSxXuf-167" value="2" style="text;html=1;strokeColor=none;fillColor=none;align=center;verticalAlign=middle;whiteSpace=wrap;rounded=0;" vertex="1" parent="1">
          <mxGeometry x="553" y="571" width="60" height="30" as="geometry" />
        </mxCell>
        <mxCell id="kWf70IJN_p3yiQGSxXuf-168" value="3" style="text;html=1;strokeColor=none;fillColor=none;align=center;verticalAlign=middle;whiteSpace=wrap;rounded=0;" vertex="1" parent="1">
          <mxGeometry x="719" y="658" width="60" height="30" as="geometry" />
        </mxCell>
        <mxCell id="kWf70IJN_p3yiQGSxXuf-169" value="3" style="text;html=1;strokeColor=none;fillColor=none;align=center;verticalAlign=middle;whiteSpace=wrap;rounded=0;" vertex="1" parent="1">
          <mxGeometry x="555" y="622" width="60" height="30" as="geometry" />
        </mxCell>
        <mxCell id="kWf70IJN_p3yiQGSxXuf-170" value="4" style="text;html=1;strokeColor=none;fillColor=none;align=center;verticalAlign=middle;whiteSpace=wrap;rounded=0;" vertex="1" parent="1">
          <mxGeometry x="640" y="658" width="60" height="30" as="geometry" />
        </mxCell>
        <mxCell id="kWf70IJN_p3yiQGSxXuf-171" value="4" style="text;html=1;strokeColor=none;fillColor=none;align=center;verticalAlign=middle;whiteSpace=wrap;rounded=0;" vertex="1" parent="1">
          <mxGeometry x="283" y="622" width="60" height="30" as="geometry" />
        </mxCell>
        <mxCell id="kWf70IJN_p3yiQGSxXuf-186" value="&lt;font size=&quot;1&quot; color=&quot;#080808&quot;&gt;&lt;b style=&quot;font-size: 20px;&quot;&gt;Client&lt;/b&gt;&lt;/font&gt;" style="rounded=0;whiteSpace=wrap;html=1;fillColor=#d80073;fontColor=#ffffff;strokeColor=#A50040;flipV=0;flipH=1;direction=west;labelPosition=center;verticalLabelPosition=middle;align=center;verticalAlign=middle;" vertex="1" parent="1">
          <mxGeometry x="157" y="875" width="90" height="60" as="geometry" />
        </mxCell>
        <mxCell id="kWf70IJN_p3yiQGSxXuf-187" value="&lt;font size=&quot;1&quot; color=&quot;#080808&quot;&gt;&lt;b style=&quot;font-size: 20px;&quot;&gt;API Gateway&lt;/b&gt;&lt;/font&gt;" style="rounded=0;whiteSpace=wrap;html=1;fillColor=#60a917;fontColor=#ffffff;strokeColor=#2D7600;flipV=0;flipH=1;direction=west;labelPosition=center;verticalLabelPosition=middle;align=center;verticalAlign=middle;" vertex="1" parent="1">
          <mxGeometry x="387" y="875" width="130" height="60" as="geometry" />
        </mxCell>
        <mxCell id="kWf70IJN_p3yiQGSxXuf-188" value="" style="endArrow=classic;html=1;rounded=0;exitX=0;exitY=0.75;exitDx=0;exitDy=0;entryX=1;entryY=0.75;entryDx=0;entryDy=0;" edge="1" parent="1" source="kWf70IJN_p3yiQGSxXuf-186" target="kWf70IJN_p3yiQGSxXuf-187">
          <mxGeometry width="50" height="50" relative="1" as="geometry">
            <mxPoint x="567" y="1005" as="sourcePoint" />
            <mxPoint x="617" y="955" as="targetPoint" />
          </mxGeometry>
        </mxCell>
        <mxCell id="kWf70IJN_p3yiQGSxXuf-189" value="&lt;font size=&quot;1&quot; color=&quot;#080808&quot;&gt;&lt;b style=&quot;font-size: 20px;&quot;&gt;User&lt;/b&gt;&lt;/font&gt;" style="rounded=0;whiteSpace=wrap;html=1;fillColor=#1ba1e2;fontColor=#ffffff;strokeColor=#006EAF;" vertex="1" parent="1">
          <mxGeometry x="647" y="875" width="120" height="60" as="geometry" />
        </mxCell>
        <mxCell id="kWf70IJN_p3yiQGSxXuf-190" value="" style="endArrow=classic;html=1;rounded=0;exitX=0;exitY=0.75;exitDx=0;exitDy=0;entryX=0;entryY=0.25;entryDx=0;entryDy=0;" edge="1" parent="1" source="kWf70IJN_p3yiQGSxXuf-187" target="kWf70IJN_p3yiQGSxXuf-189">
          <mxGeometry width="50" height="50" relative="1" as="geometry">
            <mxPoint x="587" y="1045" as="sourcePoint" />
            <mxPoint x="637" y="995" as="targetPoint" />
          </mxGeometry>
        </mxCell>
        <mxCell id="kWf70IJN_p3yiQGSxXuf-191" value="" style="endArrow=classic;html=1;rounded=0;entryX=0;entryY=0.25;entryDx=0;entryDy=0;exitX=0;exitY=0.75;exitDx=0;exitDy=0;" edge="1" parent="1" source="kWf70IJN_p3yiQGSxXuf-189" target="kWf70IJN_p3yiQGSxXuf-187">
          <mxGeometry width="50" height="50" relative="1" as="geometry">
            <mxPoint x="547" y="965" as="sourcePoint" />
            <mxPoint x="597" y="915" as="targetPoint" />
          </mxGeometry>
        </mxCell>
        <mxCell id="kWf70IJN_p3yiQGSxXuf-192" value="" style="endArrow=classic;html=1;rounded=0;entryX=0;entryY=0.25;entryDx=0;entryDy=0;exitX=1;exitY=0.25;exitDx=0;exitDy=0;" edge="1" parent="1" source="kWf70IJN_p3yiQGSxXuf-187" target="kWf70IJN_p3yiQGSxXuf-186">
          <mxGeometry width="50" height="50" relative="1" as="geometry">
            <mxPoint x="327" y="965" as="sourcePoint" />
            <mxPoint x="377" y="915" as="targetPoint" />
          </mxGeometry>
        </mxCell>
        <mxCell id="kWf70IJN_p3yiQGSxXuf-193" value="&lt;font size=&quot;1&quot; color=&quot;#080808&quot;&gt;&lt;b style=&quot;font-size: 20px;&quot;&gt;Identity&lt;br&gt;(mock)&lt;br&gt;&lt;/b&gt;&lt;/font&gt;" style="rounded=0;whiteSpace=wrap;html=1;fillColor=#11668F;fontColor=#ffffff;strokeColor=#006EAF;" vertex="1" parent="1">
          <mxGeometry x="647" y="1003" width="120" height="60" as="geometry" />
        </mxCell>
        <mxCell id="kWf70IJN_p3yiQGSxXuf-194" value="" style="endArrow=classic;html=1;rounded=0;exitX=0.75;exitY=1;exitDx=0;exitDy=0;entryX=0.75;entryY=0;entryDx=0;entryDy=0;" edge="1" parent="1" source="kWf70IJN_p3yiQGSxXuf-189" target="kWf70IJN_p3yiQGSxXuf-193">
          <mxGeometry width="50" height="50" relative="1" as="geometry">
            <mxPoint x="-13" y="889" as="sourcePoint" />
            <mxPoint x="37" y="839" as="targetPoint" />
          </mxGeometry>
        </mxCell>
        <mxCell id="kWf70IJN_p3yiQGSxXuf-195" value="" style="endArrow=classic;html=1;rounded=0;exitX=0.25;exitY=0;exitDx=0;exitDy=0;entryX=0.25;entryY=1;entryDx=0;entryDy=0;" edge="1" parent="1" source="kWf70IJN_p3yiQGSxXuf-193" target="kWf70IJN_p3yiQGSxXuf-189">
          <mxGeometry width="50" height="50" relative="1" as="geometry">
            <mxPoint x="747" y="945" as="sourcePoint" />
            <mxPoint x="691" y="973" as="targetPoint" />
          </mxGeometry>
        </mxCell>
        <mxCell id="kWf70IJN_p3yiQGSxXuf-196" value="1" style="text;html=1;strokeColor=none;fillColor=none;align=center;verticalAlign=middle;whiteSpace=wrap;rounded=0;" vertex="1" parent="1">
          <mxGeometry x="280" y="867" width="60" height="30" as="geometry" />
        </mxCell>
        <mxCell id="kWf70IJN_p3yiQGSxXuf-197" value="2" style="text;html=1;strokeColor=none;fillColor=none;align=center;verticalAlign=middle;whiteSpace=wrap;rounded=0;" vertex="1" parent="1">
          <mxGeometry x="550" y="867" width="60" height="30" as="geometry" />
        </mxCell>
        <mxCell id="kWf70IJN_p3yiQGSxXuf-198" value="3" style="text;html=1;strokeColor=none;fillColor=none;align=center;verticalAlign=middle;whiteSpace=wrap;rounded=0;" vertex="1" parent="1">
          <mxGeometry x="716" y="954" width="60" height="30" as="geometry" />
        </mxCell>
        <mxCell id="kWf70IJN_p3yiQGSxXuf-199" value="3" style="text;html=1;strokeColor=none;fillColor=none;align=center;verticalAlign=middle;whiteSpace=wrap;rounded=0;" vertex="1" parent="1">
          <mxGeometry x="552" y="918" width="60" height="30" as="geometry" />
        </mxCell>
        <mxCell id="kWf70IJN_p3yiQGSxXuf-200" value="4" style="text;html=1;strokeColor=none;fillColor=none;align=center;verticalAlign=middle;whiteSpace=wrap;rounded=0;" vertex="1" parent="1">
          <mxGeometry x="637" y="954" width="60" height="30" as="geometry" />
        </mxCell>
        <mxCell id="kWf70IJN_p3yiQGSxXuf-201" value="4" style="text;html=1;strokeColor=none;fillColor=none;align=center;verticalAlign=middle;whiteSpace=wrap;rounded=0;" vertex="1" parent="1">
          <mxGeometry x="280" y="918" width="60" height="30" as="geometry" />
        </mxCell>
        <mxCell id="kWf70IJN_p3yiQGSxXuf-202" value="&lt;font size=&quot;1&quot; color=&quot;#080808&quot;&gt;&lt;b style=&quot;font-size: 20px;&quot;&gt;Client&lt;/b&gt;&lt;/font&gt;" style="rounded=0;whiteSpace=wrap;html=1;fillColor=#d80073;fontColor=#ffffff;strokeColor=#A50040;flipV=0;flipH=1;direction=west;labelPosition=center;verticalLabelPosition=middle;align=center;verticalAlign=middle;" vertex="1" parent="1">
          <mxGeometry x="157" y="1176" width="90" height="60" as="geometry" />
        </mxCell>
        <mxCell id="kWf70IJN_p3yiQGSxXuf-203" value="&lt;font size=&quot;1&quot; color=&quot;#080808&quot;&gt;&lt;b style=&quot;font-size: 20px;&quot;&gt;API Gateway&lt;/b&gt;&lt;/font&gt;" style="rounded=0;whiteSpace=wrap;html=1;fillColor=#60a917;fontColor=#ffffff;strokeColor=#2D7600;flipV=0;flipH=1;direction=west;labelPosition=center;verticalLabelPosition=middle;align=center;verticalAlign=middle;" vertex="1" parent="1">
          <mxGeometry x="387" y="1176" width="130" height="60" as="geometry" />
        </mxCell>
        <mxCell id="kWf70IJN_p3yiQGSxXuf-204" value="" style="endArrow=classic;html=1;rounded=0;exitX=0;exitY=0.75;exitDx=0;exitDy=0;entryX=1;entryY=0.75;entryDx=0;entryDy=0;" edge="1" parent="1" source="kWf70IJN_p3yiQGSxXuf-202" target="kWf70IJN_p3yiQGSxXuf-203">
          <mxGeometry width="50" height="50" relative="1" as="geometry">
            <mxPoint x="567" y="1306" as="sourcePoint" />
            <mxPoint x="617" y="1256" as="targetPoint" />
          </mxGeometry>
        </mxCell>
        <mxCell id="kWf70IJN_p3yiQGSxXuf-205" value="&lt;font size=&quot;1&quot; color=&quot;#080808&quot;&gt;&lt;b style=&quot;font-size: 20px;&quot;&gt;User&lt;/b&gt;&lt;/font&gt;" style="rounded=0;whiteSpace=wrap;html=1;fillColor=#1ba1e2;fontColor=#ffffff;strokeColor=#006EAF;" vertex="1" parent="1">
          <mxGeometry x="647" y="1176" width="120" height="60" as="geometry" />
        </mxCell>
        <mxCell id="kWf70IJN_p3yiQGSxXuf-206" value="" style="endArrow=classic;html=1;rounded=0;exitX=0;exitY=0.75;exitDx=0;exitDy=0;entryX=0;entryY=0.25;entryDx=0;entryDy=0;" edge="1" parent="1" source="kWf70IJN_p3yiQGSxXuf-203" target="kWf70IJN_p3yiQGSxXuf-205">
          <mxGeometry width="50" height="50" relative="1" as="geometry">
            <mxPoint x="587" y="1346" as="sourcePoint" />
            <mxPoint x="637" y="1296" as="targetPoint" />
          </mxGeometry>
        </mxCell>
        <mxCell id="kWf70IJN_p3yiQGSxXuf-207" value="" style="endArrow=classic;html=1;rounded=0;entryX=0;entryY=0.25;entryDx=0;entryDy=0;exitX=0;exitY=0.75;exitDx=0;exitDy=0;" edge="1" parent="1" source="kWf70IJN_p3yiQGSxXuf-205" target="kWf70IJN_p3yiQGSxXuf-203">
          <mxGeometry width="50" height="50" relative="1" as="geometry">
            <mxPoint x="547" y="1266" as="sourcePoint" />
            <mxPoint x="597" y="1216" as="targetPoint" />
          </mxGeometry>
        </mxCell>
        <mxCell id="kWf70IJN_p3yiQGSxXuf-208" value="" style="endArrow=classic;html=1;rounded=0;entryX=0;entryY=0.25;entryDx=0;entryDy=0;exitX=1;exitY=0.25;exitDx=0;exitDy=0;" edge="1" parent="1" source="kWf70IJN_p3yiQGSxXuf-203" target="kWf70IJN_p3yiQGSxXuf-202">
          <mxGeometry width="50" height="50" relative="1" as="geometry">
            <mxPoint x="327" y="1266" as="sourcePoint" />
            <mxPoint x="377" y="1216" as="targetPoint" />
          </mxGeometry>
        </mxCell>
        <mxCell id="kWf70IJN_p3yiQGSxXuf-209" value="&lt;font size=&quot;1&quot; color=&quot;#080808&quot;&gt;&lt;b style=&quot;font-size: 20px;&quot;&gt;Identity&lt;br&gt;(mock)&lt;br&gt;&lt;/b&gt;&lt;/font&gt;" style="rounded=0;whiteSpace=wrap;html=1;fillColor=#11668F;fontColor=#ffffff;strokeColor=#006EAF;" vertex="1" parent="1">
          <mxGeometry x="647" y="1304" width="120" height="60" as="geometry" />
        </mxCell>
        <mxCell id="kWf70IJN_p3yiQGSxXuf-210" value="" style="endArrow=classic;html=1;rounded=0;exitX=0.75;exitY=1;exitDx=0;exitDy=0;entryX=0.75;entryY=0;entryDx=0;entryDy=0;" edge="1" parent="1" source="kWf70IJN_p3yiQGSxXuf-205" target="kWf70IJN_p3yiQGSxXuf-209">
          <mxGeometry width="50" height="50" relative="1" as="geometry">
            <mxPoint x="-13" y="1190" as="sourcePoint" />
            <mxPoint x="37" y="1140" as="targetPoint" />
          </mxGeometry>
        </mxCell>
        <mxCell id="kWf70IJN_p3yiQGSxXuf-211" value="" style="endArrow=classic;html=1;rounded=0;exitX=0.25;exitY=0;exitDx=0;exitDy=0;entryX=0.25;entryY=1;entryDx=0;entryDy=0;" edge="1" parent="1" source="kWf70IJN_p3yiQGSxXuf-209" target="kWf70IJN_p3yiQGSxXuf-205">
          <mxGeometry width="50" height="50" relative="1" as="geometry">
            <mxPoint x="747" y="1246" as="sourcePoint" />
            <mxPoint x="691" y="1274" as="targetPoint" />
          </mxGeometry>
        </mxCell>
        <mxCell id="kWf70IJN_p3yiQGSxXuf-212" value="1" style="text;html=1;strokeColor=none;fillColor=none;align=center;verticalAlign=middle;whiteSpace=wrap;rounded=0;" vertex="1" parent="1">
          <mxGeometry x="280" y="1168" width="60" height="30" as="geometry" />
        </mxCell>
        <mxCell id="kWf70IJN_p3yiQGSxXuf-213" value="2" style="text;html=1;strokeColor=none;fillColor=none;align=center;verticalAlign=middle;whiteSpace=wrap;rounded=0;" vertex="1" parent="1">
          <mxGeometry x="550" y="1168" width="60" height="30" as="geometry" />
        </mxCell>
        <mxCell id="kWf70IJN_p3yiQGSxXuf-214" value="3" style="text;html=1;strokeColor=none;fillColor=none;align=center;verticalAlign=middle;whiteSpace=wrap;rounded=0;" vertex="1" parent="1">
          <mxGeometry x="716" y="1255" width="60" height="30" as="geometry" />
        </mxCell>
        <mxCell id="kWf70IJN_p3yiQGSxXuf-215" value="3" style="text;html=1;strokeColor=none;fillColor=none;align=center;verticalAlign=middle;whiteSpace=wrap;rounded=0;" vertex="1" parent="1">
          <mxGeometry x="552" y="1219" width="60" height="30" as="geometry" />
        </mxCell>
        <mxCell id="kWf70IJN_p3yiQGSxXuf-216" value="4" style="text;html=1;strokeColor=none;fillColor=none;align=center;verticalAlign=middle;whiteSpace=wrap;rounded=0;" vertex="1" parent="1">
          <mxGeometry x="637" y="1255" width="60" height="30" as="geometry" />
        </mxCell>
        <mxCell id="kWf70IJN_p3yiQGSxXuf-217" value="4" style="text;html=1;strokeColor=none;fillColor=none;align=center;verticalAlign=middle;whiteSpace=wrap;rounded=0;" vertex="1" parent="1">
          <mxGeometry x="280" y="1219" width="60" height="30" as="geometry" />
        </mxCell>
        <mxCell id="kWf70IJN_p3yiQGSxXuf-218" value="" style="rounded=0;whiteSpace=wrap;html=1;" vertex="1" parent="1">
          <mxGeometry x="-2.5" y="2187" width="552" height="648" as="geometry" />
        </mxCell>
        <mxCell id="kWf70IJN_p3yiQGSxXuf-219" style="edgeStyle=orthogonalEdgeStyle;rounded=0;orthogonalLoop=1;jettySize=auto;html=1;exitX=0.25;exitY=1;exitDx=0;exitDy=0;entryX=0.25;entryY=0;entryDx=0;entryDy=0;" edge="1" parent="1" source="kWf70IJN_p3yiQGSxXuf-220" target="kWf70IJN_p3yiQGSxXuf-223">
          <mxGeometry relative="1" as="geometry">
            <Array as="points">
              <mxPoint x="125.5" y="2388" />
            </Array>
          </mxGeometry>
        </mxCell>
        <mxCell id="kWf70IJN_p3yiQGSxXuf-220" value="Communication Layer - Client/Listener" style="rounded=0;whiteSpace=wrap;html=1;fontSize=17;fillColor=#008a00;fontColor=#ffffff;strokeColor=#005700;" vertex="1" parent="1">
          <mxGeometry x="43.5" y="2314" width="317" height="74" as="geometry" />
        </mxCell>
        <mxCell id="kWf70IJN_p3yiQGSxXuf-221" style="edgeStyle=orthogonalEdgeStyle;rounded=0;orthogonalLoop=1;jettySize=auto;html=1;exitX=0.25;exitY=1;exitDx=0;exitDy=0;entryX=0.25;entryY=0;entryDx=0;entryDy=0;" edge="1" parent="1" source="kWf70IJN_p3yiQGSxXuf-223" target="kWf70IJN_p3yiQGSxXuf-226">
          <mxGeometry relative="1" as="geometry">
            <Array as="points">
              <mxPoint x="123.5" y="2542" />
            </Array>
          </mxGeometry>
        </mxCell>
        <mxCell id="kWf70IJN_p3yiQGSxXuf-222" style="edgeStyle=orthogonalEdgeStyle;rounded=0;orthogonalLoop=1;jettySize=auto;html=1;exitX=0.75;exitY=0;exitDx=0;exitDy=0;entryX=0.75;entryY=1;entryDx=0;entryDy=0;" edge="1" parent="1" source="kWf70IJN_p3yiQGSxXuf-223" target="kWf70IJN_p3yiQGSxXuf-220">
          <mxGeometry relative="1" as="geometry">
            <Array as="points">
              <mxPoint x="281.5" y="2439" />
            </Array>
          </mxGeometry>
        </mxCell>
        <mxCell id="kWf70IJN_p3yiQGSxXuf-223" value="User Service Layer&amp;nbsp;" style="rounded=0;whiteSpace=wrap;html=1;fontSize=18;fillColor=#1ba1e2;fontColor=#ffffff;strokeColor=#006EAF;" vertex="1" parent="1">
          <mxGeometry x="46.5" y="2439" width="317" height="103" as="geometry" />
        </mxCell>
        <mxCell id="kWf70IJN_p3yiQGSxXuf-224" style="edgeStyle=orthogonalEdgeStyle;rounded=0;orthogonalLoop=1;jettySize=auto;html=1;exitX=0.25;exitY=1;exitDx=0;exitDy=0;entryX=0;entryY=0.5;entryDx=0;entryDy=0;" edge="1" parent="1" target="kWf70IJN_p3yiQGSxXuf-231">
          <mxGeometry relative="1" as="geometry">
            <Array as="points">
              <mxPoint x="172.51999999999998" y="2707" />
              <mxPoint x="172.51999999999998" y="2742" />
            </Array>
            <mxPoint x="197.51999999999998" y="2707" as="sourcePoint" />
          </mxGeometry>
        </mxCell>
        <mxCell id="kWf70IJN_p3yiQGSxXuf-225" style="edgeStyle=orthogonalEdgeStyle;rounded=0;orthogonalLoop=1;jettySize=auto;html=1;exitX=0.75;exitY=0;exitDx=0;exitDy=0;entryX=0.75;entryY=1;entryDx=0;entryDy=0;" edge="1" parent="1" source="kWf70IJN_p3yiQGSxXuf-226" target="kWf70IJN_p3yiQGSxXuf-223">
          <mxGeometry relative="1" as="geometry" />
        </mxCell>
        <mxCell id="kWf70IJN_p3yiQGSxXuf-226" value="User Repo Layer" style="rounded=0;whiteSpace=wrap;html=1;fontSize=18;fillColor=#d80073;fontColor=#ffffff;strokeColor=#A50040;" vertex="1" parent="1">
          <mxGeometry x="43.5" y="2586" width="320" height="121" as="geometry" />
        </mxCell>
        <mxCell id="kWf70IJN_p3yiQGSxXuf-227" value="" style="shape=cylinder3;whiteSpace=wrap;html=1;boundedLbl=1;backgroundOutline=1;size=15;" vertex="1" parent="1">
          <mxGeometry x="171.51999999999998" y="2755" width="60" height="43" as="geometry" />
        </mxCell>
        <mxCell id="kWf70IJN_p3yiQGSxXuf-228" value="" style="shape=cylinder3;whiteSpace=wrap;html=1;boundedLbl=1;backgroundOutline=1;size=15;" vertex="1" parent="1">
          <mxGeometry x="171.51999999999998" y="2741" width="60" height="43" as="geometry" />
        </mxCell>
        <mxCell id="kWf70IJN_p3yiQGSxXuf-229" value="" style="shape=cylinder3;whiteSpace=wrap;html=1;boundedLbl=1;backgroundOutline=1;size=15;" vertex="1" parent="1">
          <mxGeometry x="171.51999999999998" y="2727" width="60" height="43" as="geometry" />
        </mxCell>
        <mxCell id="kWf70IJN_p3yiQGSxXuf-230" style="edgeStyle=orthogonalEdgeStyle;rounded=0;orthogonalLoop=1;jettySize=auto;html=1;exitX=1;exitY=0.5;exitDx=0;exitDy=0;" edge="1" parent="1" source="kWf70IJN_p3yiQGSxXuf-231">
          <mxGeometry relative="1" as="geometry">
            <Array as="points">
              <mxPoint x="231.51999999999998" y="2719" />
              <mxPoint x="231.51999999999998" y="2719" />
            </Array>
            <mxPoint x="231.5438095238094" y="2707" as="targetPoint" />
          </mxGeometry>
        </mxCell>
        <mxCell id="kWf70IJN_p3yiQGSxXuf-231" value="&lt;b&gt;&lt;font style=&quot;font-size: 17px;&quot;&gt;DB&lt;/font&gt;&lt;/b&gt;" style="text;html=1;strokeColor=none;fillColor=none;align=center;verticalAlign=middle;whiteSpace=wrap;rounded=0;" vertex="1" parent="1">
          <mxGeometry x="171.51999999999998" y="2727" width="60" height="30" as="geometry" />
        </mxCell>
        <mxCell id="kWf70IJN_p3yiQGSxXuf-232" value="&lt;font size=&quot;1&quot; color=&quot;#ffffff&quot;&gt;&lt;b style=&quot;font-size: 32px;&quot;&gt;User Service&lt;/b&gt;&lt;/font&gt;" style="rounded=0;whiteSpace=wrap;html=1;flipV=0;flipH=1;direction=west;labelPosition=center;verticalLabelPosition=middle;align=center;verticalAlign=middle;" vertex="1" parent="1">
          <mxGeometry x="17.5" y="2206" width="522" height="62" as="geometry" />
        </mxCell>
        <mxCell id="kWf70IJN_p3yiQGSxXuf-233" value="&lt;font size=&quot;1&quot; color=&quot;#080808&quot;&gt;&lt;b style=&quot;font-size: 40px;&quot;&gt;Client&lt;/b&gt;&lt;/font&gt;" style="rounded=0;whiteSpace=wrap;html=1;fillColor=#d80073;fontColor=#ffffff;strokeColor=#A50040;flipV=0;flipH=1;direction=west;labelPosition=center;verticalLabelPosition=middle;align=center;verticalAlign=middle;" vertex="1" parent="1">
          <mxGeometry x="126" y="1601" width="1519" height="133" as="geometry" />
        </mxCell>
        <mxCell id="kWf70IJN_p3yiQGSxXuf-234" value="" style="rounded=0;whiteSpace=wrap;html=1;" vertex="1" parent="1">
          <mxGeometry x="596" y="2187" width="552" height="323" as="geometry" />
        </mxCell>
        <mxCell id="kWf70IJN_p3yiQGSxXuf-249" value="&lt;font size=&quot;1&quot; color=&quot;#ffffff&quot;&gt;&lt;b style=&quot;font-size: 32px;&quot;&gt;Search Service&lt;/b&gt;&lt;/font&gt;" style="rounded=0;whiteSpace=wrap;html=1;flipV=0;flipH=1;direction=west;labelPosition=center;verticalLabelPosition=middle;align=center;verticalAlign=middle;" vertex="1" parent="1">
          <mxGeometry x="608.5" y="2208" width="522" height="62" as="geometry" />
        </mxCell>
        <mxCell id="kWf70IJN_p3yiQGSxXuf-250" value="" style="rounded=0;whiteSpace=wrap;html=1;" vertex="1" parent="1">
          <mxGeometry x="143" y="1783" width="1502" height="354" as="geometry" />
        </mxCell>
        <mxCell id="kWf70IJN_p3yiQGSxXuf-251" value="&lt;font size=&quot;1&quot; color=&quot;#ffffff&quot;&gt;&lt;b style=&quot;font-size: 32px;&quot;&gt;API Gateway&lt;/b&gt;&lt;/font&gt;" style="rounded=0;whiteSpace=wrap;html=1;flipV=0;flipH=1;direction=west;labelPosition=center;verticalLabelPosition=middle;align=center;verticalAlign=middle;" vertex="1" parent="1">
          <mxGeometry x="158" y="1805" width="1472" height="62" as="geometry" />
        </mxCell>
        <mxCell id="kWf70IJN_p3yiQGSxXuf-253" value="&lt;font color=&quot;#080808&quot;&gt;&lt;span style=&quot;font-size: 20px;&quot;&gt;&lt;b&gt;Endpoints&lt;/b&gt;&lt;/span&gt;&lt;/font&gt;" style="rounded=0;whiteSpace=wrap;html=1;fillColor=#60a917;fontColor=#ffffff;strokeColor=#2D7600;flipV=0;flipH=1;direction=west;labelPosition=center;verticalLabelPosition=middle;align=center;verticalAlign=middle;" vertex="1" parent="1">
          <mxGeometry x="158" y="1893" width="1471" height="60" as="geometry" />
        </mxCell>
        <mxCell id="kWf70IJN_p3yiQGSxXuf-255" value="&lt;font size=&quot;1&quot; color=&quot;#080808&quot;&gt;&lt;b style=&quot;font-size: 20px;&quot;&gt;Kommunikationslag&lt;br&gt;&lt;/b&gt;&lt;/font&gt;" style="rounded=0;whiteSpace=wrap;html=1;fillColor=#008a00;fontColor=#ffffff;strokeColor=#005700;" vertex="1" parent="1">
          <mxGeometry x="1213" y="2289" width="513" height="65" as="geometry" />
        </mxCell>
        <mxCell id="kWf70IJN_p3yiQGSxXuf-260" value="&lt;b style=&quot;border-color: var(--border-color); color: rgb(8, 8, 8); font-size: 20px;&quot;&gt;Servicelag&lt;/b&gt;" style="rounded=0;whiteSpace=wrap;html=1;fillColor=#60a917;fontColor=#ffffff;strokeColor=#2D7600;flipV=0;flipH=1;direction=west;labelPosition=center;verticalLabelPosition=middle;align=center;verticalAlign=middle;" vertex="1" parent="1">
          <mxGeometry x="160" y="1970" width="1471" height="66" as="geometry" />
        </mxCell>
        <mxCell id="kWf70IJN_p3yiQGSxXuf-261" value="&lt;font size=&quot;1&quot; color=&quot;#080808&quot;&gt;&lt;b style=&quot;font-size: 20px;&quot;&gt;Kommunikationslag&lt;/b&gt;&lt;/font&gt;" style="rounded=0;whiteSpace=wrap;html=1;fillColor=#008a00;fontColor=#ffffff;strokeColor=#005700;" vertex="1" parent="1">
          <mxGeometry x="608.5" y="2290" width="512.5" height="70" as="geometry" />
        </mxCell>
        <mxCell id="kWf70IJN_p3yiQGSxXuf-262" value="&lt;font size=&quot;1&quot; color=&quot;#080808&quot;&gt;&lt;b style=&quot;font-size: 20px;&quot;&gt;Servicelag&lt;/b&gt;&lt;/font&gt;" style="rounded=0;whiteSpace=wrap;html=1;fillColor=#188cc4;fontColor=#ffffff;strokeColor=#132A36;" vertex="1" parent="1">
          <mxGeometry x="611" y="2412" width="513" height="72" as="geometry" />
        </mxCell>
        <mxCell id="kWf70IJN_p3yiQGSxXuf-263" value="&lt;b style=&quot;border-color: var(--border-color); color: rgb(8, 8, 8); font-size: 20px;&quot;&gt;Communikationslag&lt;/b&gt;" style="rounded=0;whiteSpace=wrap;html=1;fillColor=#60a917;fontColor=#ffffff;strokeColor=#2D7600;flipV=0;flipH=1;direction=west;labelPosition=center;verticalLabelPosition=middle;align=center;verticalAlign=middle;" vertex="1" parent="1">
          <mxGeometry x="160" y="2053" width="1471" height="66" as="geometry" />
        </mxCell>
        <mxCell id="kWf70IJN_p3yiQGSxXuf-265" value="&lt;font size=&quot;1&quot; color=&quot;#ffffff&quot;&gt;&lt;b style=&quot;font-size: 32px;&quot;&gt;Identity Service&lt;/b&gt;&lt;/font&gt;" style="rounded=0;whiteSpace=wrap;html=1;flipV=0;flipH=1;direction=west;labelPosition=center;verticalLabelPosition=middle;align=center;verticalAlign=middle;" vertex="1" parent="1">
          <mxGeometry x="1207" y="2206" width="522" height="62" as="geometry" />
        </mxCell>
        <mxCell id="kWf70IJN_p3yiQGSxXuf-268" value="&lt;b style=&quot;border-color: var(--border-color); color: rgb(8, 8, 8); font-size: 20px;&quot;&gt;Servicelag&lt;/b&gt;" style="rounded=0;whiteSpace=wrap;html=1;fillColor=#1ba1e2;fontColor=#ffffff;strokeColor=#006EAF;" vertex="1" parent="1">
          <mxGeometry x="1216.5" y="2406" width="506" height="65" as="geometry" />
        </mxCell>
        <mxCell id="kWf70IJN_p3yiQGSxXuf-269" value="&lt;b style=&quot;border-color: var(--border-color); color: rgb(8, 8, 8); font-size: 20px;&quot;&gt;DB Kontekst&lt;/b&gt;" style="rounded=0;whiteSpace=wrap;html=1;fillColor=#1ba1e2;fontColor=#ffffff;strokeColor=#006EAF;" vertex="1" parent="1">
          <mxGeometry x="1213.5" y="2526" width="509" height="65" as="geometry" />
        </mxCell>
        <mxCell id="kWf70IJN_p3yiQGSxXuf-271" value="" style="shape=cylinder3;whiteSpace=wrap;html=1;boundedLbl=1;backgroundOutline=1;size=15;" vertex="1" parent="1">
          <mxGeometry x="1445" y="2640" width="60" height="43" as="geometry" />
        </mxCell>
        <mxCell id="kWf70IJN_p3yiQGSxXuf-272" value="" style="shape=cylinder3;whiteSpace=wrap;html=1;boundedLbl=1;backgroundOutline=1;size=15;" vertex="1" parent="1">
          <mxGeometry x="1445" y="2626" width="60" height="43" as="geometry" />
        </mxCell>
        <mxCell id="kWf70IJN_p3yiQGSxXuf-273" value="" style="shape=cylinder3;whiteSpace=wrap;html=1;boundedLbl=1;backgroundOutline=1;size=15;" vertex="1" parent="1">
          <mxGeometry x="1445" y="2612" width="60" height="43" as="geometry" />
        </mxCell>
        <mxCell id="kWf70IJN_p3yiQGSxXuf-274" style="edgeStyle=orthogonalEdgeStyle;rounded=0;orthogonalLoop=1;jettySize=auto;html=1;exitX=1;exitY=0.5;exitDx=0;exitDy=0;" edge="1" parent="1" source="kWf70IJN_p3yiQGSxXuf-275">
          <mxGeometry relative="1" as="geometry">
            <Array as="points">
              <mxPoint x="1505" y="2604" />
              <mxPoint x="1505" y="2604" />
            </Array>
            <mxPoint x="1505.5" y="2592" as="targetPoint" />
          </mxGeometry>
        </mxCell>
        <mxCell id="kWf70IJN_p3yiQGSxXuf-275" value="&lt;b&gt;&lt;font style=&quot;font-size: 17px;&quot;&gt;DB&lt;/font&gt;&lt;/b&gt;" style="text;html=1;strokeColor=none;fillColor=none;align=center;verticalAlign=middle;whiteSpace=wrap;rounded=0;" vertex="1" parent="1">
          <mxGeometry x="1445" y="2612" width="60" height="30" as="geometry" />
        </mxCell>
        <mxCell id="kWf70IJN_p3yiQGSxXuf-276" value="" style="endArrow=classic;html=1;rounded=0;" edge="1" parent="1">
          <mxGeometry width="50" height="50" relative="1" as="geometry">
            <mxPoint x="1445" y="2591" as="sourcePoint" />
            <mxPoint x="1445" y="2626" as="targetPoint" />
          </mxGeometry>
        </mxCell>
        <mxCell id="kWf70IJN_p3yiQGSxXuf-277" style="edgeStyle=orthogonalEdgeStyle;rounded=0;orthogonalLoop=1;jettySize=auto;html=1;exitX=0.25;exitY=1;exitDx=0;exitDy=0;entryX=0.25;entryY=0;entryDx=0;entryDy=0;" edge="1" parent="1">
          <mxGeometry relative="1" as="geometry">
            <Array as="points">
              <mxPoint x="788.5" y="2360" />
            </Array>
            <mxPoint x="786" y="2360" as="sourcePoint" />
            <mxPoint x="789" y="2411" as="targetPoint" />
          </mxGeometry>
        </mxCell>
        <mxCell id="kWf70IJN_p3yiQGSxXuf-278" style="edgeStyle=orthogonalEdgeStyle;rounded=0;orthogonalLoop=1;jettySize=auto;html=1;exitX=0.75;exitY=0;exitDx=0;exitDy=0;entryX=0.75;entryY=1;entryDx=0;entryDy=0;" edge="1" parent="1">
          <mxGeometry relative="1" as="geometry">
            <Array as="points">
              <mxPoint x="944.5" y="2411" />
            </Array>
            <mxPoint x="947" y="2411" as="sourcePoint" />
            <mxPoint x="944" y="2360" as="targetPoint" />
          </mxGeometry>
        </mxCell>
        <mxCell id="kWf70IJN_p3yiQGSxXuf-279" style="edgeStyle=orthogonalEdgeStyle;rounded=0;orthogonalLoop=1;jettySize=auto;html=1;exitX=0.25;exitY=1;exitDx=0;exitDy=0;entryX=0.25;entryY=0;entryDx=0;entryDy=0;" edge="1" parent="1">
          <mxGeometry relative="1" as="geometry">
            <Array as="points">
              <mxPoint x="1390" y="2354" />
            </Array>
            <mxPoint x="1387.5" y="2354" as="sourcePoint" />
            <mxPoint x="1390.5" y="2405" as="targetPoint" />
          </mxGeometry>
        </mxCell>
        <mxCell id="kWf70IJN_p3yiQGSxXuf-280" style="edgeStyle=orthogonalEdgeStyle;rounded=0;orthogonalLoop=1;jettySize=auto;html=1;exitX=0.75;exitY=0;exitDx=0;exitDy=0;entryX=0.75;entryY=1;entryDx=0;entryDy=0;" edge="1" parent="1">
          <mxGeometry relative="1" as="geometry">
            <Array as="points">
              <mxPoint x="1546" y="2405" />
            </Array>
            <mxPoint x="1548.5" y="2405" as="sourcePoint" />
            <mxPoint x="1545.5" y="2354" as="targetPoint" />
          </mxGeometry>
        </mxCell>
        <mxCell id="kWf70IJN_p3yiQGSxXuf-288" style="edgeStyle=orthogonalEdgeStyle;rounded=0;orthogonalLoop=1;jettySize=auto;html=1;exitX=0.25;exitY=1;exitDx=0;exitDy=0;entryX=0.25;entryY=0;entryDx=0;entryDy=0;" edge="1" parent="1">
          <mxGeometry relative="1" as="geometry">
            <Array as="points">
              <mxPoint x="1391.5" y="2471" />
            </Array>
            <mxPoint x="1389" y="2471" as="sourcePoint" />
            <mxPoint x="1392" y="2522" as="targetPoint" />
          </mxGeometry>
        </mxCell>
        <mxCell id="kWf70IJN_p3yiQGSxXuf-289" style="edgeStyle=orthogonalEdgeStyle;rounded=0;orthogonalLoop=1;jettySize=auto;html=1;exitX=0.75;exitY=0;exitDx=0;exitDy=0;entryX=0.75;entryY=1;entryDx=0;entryDy=0;" edge="1" parent="1">
          <mxGeometry relative="1" as="geometry">
            <Array as="points">
              <mxPoint x="1547.5" y="2522" />
            </Array>
            <mxPoint x="1550" y="2522" as="sourcePoint" />
            <mxPoint x="1547" y="2471" as="targetPoint" />
          </mxGeometry>
        </mxCell>
      </root>
    </mxGraphModel>
  </diagram>
</mxfile>
